<svg width="24" height="22" viewBox="0 0 24 22" fill="none" xmlns="http://www.w3.org/2000/svg">
<path d="M20.9832 3.20554L20.9824 3.20476C20.4125 2.64613 19.7406 2.2022 19.0032 1.89709L19.0019 1.89656C18.2369 1.57875 17.4163 1.41608 16.5878 1.41799L16.5855 1.41799C15.4204 1.41799 14.2855 1.73694 13.3001 2.33808L13.3001 2.3381C13.0643 2.48192 12.841 2.63943 12.6299 2.81065L12 3.3216L11.3701 2.81065C11.159 2.63943 10.9357 2.48192 10.6999 2.3381L10.6999 2.33808C9.71451 1.73694 8.57959 1.41799 7.41445 1.41799C6.57366 1.41799 5.76354 1.57859 4.99806 1.89656L4.99698 1.89701C4.25669 2.2035 3.5905 2.64365 3.0173 3.20506L3.01594 3.2064L3.01593 3.20639C2.44787 3.76066 1.99407 4.421 1.68027 5.15L20.9832 3.20554ZM20.9832 3.20554C21.5509 3.76083 22.005 4.42146 22.3199 5.15046C22.6463 5.90902 22.8121 6.71135 22.8098 7.5382V7.54103C22.8098 8.31467 22.6518 9.14253 22.3207 10.0084L22.3198 10.0107M20.9832 3.20554L22.3198 10.0107M6.40021 16.2645L6.40032 16.2646C7.63443 17.4043 8.86644 18.3711 9.80482 19.0619C10.2732 19.4068 10.6665 19.6814 10.9478 19.8729C11.0883 19.9686 11.2006 20.0433 11.28 20.0955C11.3577 20.1466 11.3978 20.172 11.4025 20.175L11.403 20.1753L11.4109 20.1802L11.4188 20.1852L11.9986 20.5571L12.5785 20.1852L12.5787 20.1851C12.6655 20.1294 15.1195 18.5499 17.5971 16.2645C19.087 14.889 20.2635 13.5531 21.1059 12.2974L6.40021 16.2645ZM6.40021 16.2645C4.91008 14.8888 3.73344 13.5528 2.89103 12.2969M6.40021 16.2645L2.89103 12.2969M22.3198 10.0107C22.0455 10.7331 21.6385 11.5024 21.106 12.2972L22.3198 10.0107ZM2.89103 12.2969C2.35996 11.5041 1.95458 10.734 1.6766 10.0084L2.89103 12.2969ZM1.1875 7.54103C1.1875 6.71212 1.35377 5.90873 1.68024 5.15007L1.67641 10.0079C1.34539 9.14222 1.1875 8.31452 1.1875 7.54103Z" stroke="#FF005C" stroke-width="2"/>
</svg>
