<svg width="33" height="32" viewBox="0 0 33 32" fill="none" xmlns="http://www.w3.org/2000/svg">
<path fill-rule="evenodd" clip-rule="evenodd" d="M4.05469 10.1927C4.05469 6.52717 7.02619 3.55566 10.6917 3.55566H22.3065C25.9721 3.55566 28.9436 6.52717 28.9436 10.1927V21.8075C28.9436 25.4731 25.9721 28.4446 22.3065 28.4446H10.6917C7.02619 28.4446 4.05469 25.4731 4.05469 21.8075V10.1927ZM16.4989 20.5631C19.019 20.5631 21.0619 18.5202 21.0619 16.0001C21.0619 13.4801 19.019 11.4372 16.4989 11.4372C13.9789 11.4372 11.936 13.4801 11.936 16.0001C11.936 18.5202 13.9789 20.5631 16.4989 20.5631ZM16.4989 22.6372C20.1645 22.6372 23.136 19.6657 23.136 16.0001C23.136 12.3346 20.1645 9.36309 16.4989 9.36309C12.8334 9.36309 9.86189 12.3346 9.86189 16.0001C9.86189 19.6657 12.8334 22.6372 16.4989 22.6372ZM24.1734 9.77785C24.7461 9.77785 25.2104 9.31355 25.2104 8.74081C25.2104 8.16807 24.7461 7.70378 24.1734 7.70378C23.6007 7.70378 23.1364 8.16807 23.1364 8.74081C23.1364 9.31355 23.6007 9.77785 24.1734 9.77785Z" fill="url(#paint0_linear_1027_16448)"/>
<defs>
<linearGradient id="paint0_linear_1027_16448" x1="4.05469" y1="3.55566" x2="31.5277" y2="6.84205" gradientUnits="userSpaceOnUse">
<stop stop-color="#0882F2"/>
<stop offset="1" stop-color="#1FC6EC"/>
</linearGradient>
</defs>
</svg>
