<svg width="64" height="64" viewBox="0 0 64 64" fill="none" xmlns="http://www.w3.org/2000/svg">
<g clip-path="url(#clip0_427:31815)">
<path d="M58.6673 12.4647C58.6673 12.829 58.6673 13.1719 58.6673 13.5362C57.4007 14.6506 56.134 15.7864 54.8451 16.8794C54.2007 17.4151 53.9562 18.0152 53.9562 18.8295C53.9784 28.216 53.9562 37.6024 54.0007 47.0103C54.0007 47.6318 54.3784 48.3818 54.8229 48.8533C56.0451 50.1391 57.3784 51.3392 58.6673 52.5607C58.6673 52.775 58.6673 52.9893 58.6673 53.2036C58.3118 53.2465 57.934 53.3322 57.5784 53.3322C51.2895 53.3322 44.9784 53.3322 38.6895 53.3322C38.3562 53.3322 38.0229 53.1822 37.6673 53.0965C37.8229 52.7322 37.8895 52.2607 38.1562 52.0035C39.2229 50.932 40.3562 49.882 41.4895 48.8747C42.134 48.2961 42.4007 47.6532 42.4007 46.796C42.3784 39.574 42.4007 32.352 42.3784 25.1514C42.3784 24.9371 42.3118 24.7443 42.2451 24.2514C42.0007 24.8086 41.8673 25.1086 41.7562 25.3872C38.1118 34.345 34.4451 43.2814 30.8007 52.2393C30.6007 52.7536 30.5118 53.2679 29.6451 53.2679C28.8229 53.2679 28.5784 52.8822 28.3118 52.3036C24.0673 43.3029 19.8007 34.3236 15.534 25.3657C15.3784 25.0657 15.2229 24.7657 15.0673 24.4657C15.0007 24.4657 14.934 24.4871 14.8673 24.4871C14.8673 24.8514 14.8673 25.2372 14.8673 25.6015C14.8673 31.5591 14.8895 37.5381 14.8451 43.4957C14.8451 44.4815 15.134 45.2959 15.8007 46.0245C17.4673 47.9318 19.1118 49.8605 20.734 51.8107C21.0229 52.1536 21.1118 52.625 21.3784 53.2036C15.8451 53.2036 10.6007 53.2036 5.33398 53.2036C5.33398 52.8393 5.33398 52.4964 5.33398 52.1321C5.66732 51.8107 6.02287 51.5321 6.33398 51.1892C7.60065 49.7319 8.77843 48.2318 10.0895 46.8174C11.2229 45.6173 11.6895 44.3315 11.6673 42.6814C11.5784 35.5451 11.6229 28.3874 11.6451 21.2511C11.6451 20.3082 11.4007 19.5581 10.734 18.8295C9.26732 17.2008 7.86732 15.5293 6.48954 13.8577C6.20065 13.5148 6.08954 13.0434 5.8451 12.5076C6.37843 12.4862 6.66732 12.4647 6.95621 12.4647C11.4673 12.4647 16.0007 12.4862 20.5118 12.4433C21.2673 12.4433 21.6007 12.7005 21.8895 13.3219C24.5562 19.0438 27.2673 24.7443 29.9784 30.4447C31.0895 32.802 32.2007 35.1594 33.4007 37.6667C33.6007 37.2167 33.734 36.9381 33.8673 36.6381C37.0895 28.8589 40.334 21.1011 43.5562 13.3219C43.8229 12.6576 44.1562 12.4219 44.9118 12.4219C49.4895 12.4862 54.0673 12.4647 58.6673 12.4647Z" fill="url(#paint0_linear_427:31815)"/>
</g>
<defs>
<linearGradient id="paint0_linear_427:31815" x1="5.33398" y1="12.4219" x2="63.6295" y2="21.5129" gradientUnits="userSpaceOnUse">
<stop stop-color="#0882F2"/>
<stop offset="1" stop-color="#1FC6EC"/>
</linearGradient>
<clipPath id="clip0_427:31815">
<rect width="53.3333" height="40.8889" fill="white" transform="translate(5.33398 12.4443)"/>
</clipPath>
</defs>
</svg>
