<?xml version="1.0" standalone="no"?>
<!DOCTYPE svg PUBLIC "-//W3C//DTD SVG 20010904//EN"
 "http://www.w3.org/TR/2001/REC-SVG-20010904/DTD/svg10.dtd">
<svg version="1.0" xmlns="http://www.w3.org/2000/svg"
 width="464.000000pt" height="464.000000pt" viewBox="0 0 464.000000 464.000000"
 preserveAspectRatio="xMidYMid meet">

<g transform="translate(0.000000,464.000000) scale(0.100000,-0.100000)"
fill="#000000" stroke="none">
<path d="M1434 4491 c-127 -33 -173 -54 -269 -126 -137 -102 -282 -282 -311
-385 -8 -30 -24 -84 -34 -120 -11 -36 -40 -155 -65 -265 -26 -110 -141 -587
-257 -1060 -199 -814 -210 -864 -206 -935 6 -95 25 -130 98 -179 49 -33 144
-102 493 -355 53 -39 135 -98 181 -131 46 -33 161 -116 256 -185 95 -69 241
-174 324 -233 83 -59 183 -131 221 -159 39 -29 95 -70 125 -92 30 -22 80 -58
110 -81 122 -91 180 -112 259 -91 46 12 65 25 516 351 83 60 185 134 228 164
43 31 223 160 400 288 177 128 408 293 512 369 216 155 238 173 261 223 27 56
19 130 -40 389 -80 349 -132 581 -255 1132 -60 272 -130 585 -155 695 -52 233
-69 284 -135 394 -84 139 -240 288 -364 349 -115 56 -205 75 -336 70 -185 -8
-310 -59 -433 -180 -75 -73 -158 -203 -198 -310 -28 -73 -37 -88 -55 -88 -17
0 -28 17 -59 93 -65 155 -140 264 -242 347 -73 59 -142 93 -249 120 -106 27
-188 25 -321 -9z m1751 -191 c236 -89 420 -345 432 -600 12 -243 -68 -387
-271 -485 -55 -27 -104 -58 -113 -72 -22 -32 -13 -120 28 -293 25 -105 32
-159 33 -241 l1 -107 -48 -70 c-58 -86 -193 -217 -308 -299 -96 -69 -237 -149
-246 -139 -4 3 -2 6 3 6 29 1 35 17 23 64 -10 41 -14 46 -33 40 -11 -3 16 16
60 44 170 104 324 240 365 320 29 58 36 145 17 192 -8 19 -39 62 -69 94 -69
75 -217 188 -234 178 -7 -4 -31 -29 -52 -57 -22 -28 -62 -62 -89 -77 -50 -27
-168 -54 -201 -45 -15 4 -14 5 4 6 19 1 21 4 14 24 -8 20 0 41 45 118 30 52
68 113 84 136 17 23 30 48 30 55 0 8 -16 30 -36 49 -42 39 -161 181 -186 220
-35 55 -58 149 -64 257 l-6 107 46 19 c57 22 68 38 105 149 51 150 104 240
188 318 56 53 93 74 173 101 76 25 221 20 305 -12z m-946 -687 c-2 -125 -6
-118 -12 15 -2 50 0 92 5 92 4 0 7 -48 7 -107z m1555 -860 c4 -54 16 -158 27
-231 27 -190 31 -174 -55 -229 -41 -26 -77 -54 -79 -63 -2 -9 15 -155 39 -326
24 -170 43 -316 44 -325 0 -14 -87 -86 -94 -78 -1 2 -22 142 -45 310 -23 169
-45 316 -48 328 -6 25 -30 27 -55 4 -10 -9 -20 -14 -23 -12 -2 3 -7 37 -11 76
l-7 70 75 74 c59 58 84 92 117 160 41 86 91 255 91 310 0 16 4 29 9 29 4 0 11
-44 15 -97z m-906 -135 c-13 -103 -38 -206 -53 -218 -10 -8 -24 0 -64 40 -27
27 -54 50 -59 50 -16 0 -51 -45 -77 -100 -20 -42 -25 -47 -20 -23 4 21 1 44
-8 62 -14 28 -13 32 24 93 21 35 40 67 42 72 2 6 31 -14 66 -42 34 -29 66 -52
70 -52 16 0 30 26 41 75 13 60 30 105 40 105 3 0 3 -28 -2 -62z m617 -777 c31
-227 54 -416 51 -419 -15 -15 -49 43 -116 198 -44 102 -79 170 -87 170 -10 0
-12 -9 -8 -32 3 -18 19 -127 34 -243 l29 -210 -26 -22 -27 -21 -58 411 c-51
357 -57 415 -45 436 7 14 18 26 23 27 6 2 44 -69 86 -158 109 -233 115 -228
73 71 -25 176 -25 185 -8 198 10 7 19 12 20 10 2 -1 28 -188 59 -416z m-253
-189 l56 -407 -26 -26 c-15 -15 -58 -47 -96 -73 -51 -34 -72 -44 -85 -37 -13
8 -27 88 -72 408 -61 430 -61 402 -8 433 16 9 24 -37 111 -677 6 -46 15 -83
20 -83 23 0 78 56 78 79 0 14 -23 189 -51 390 l-50 366 27 23 c14 13 29 20 33
17 3 -4 32 -190 63 -413z m-328 176 c9 -14 30 -132 51 -288 20 -146 45 -316
54 -377 16 -105 16 -114 1 -128 -15 -14 -19 0 -44 173 -28 186 -37 218 -63
208 -8 -3 -13 2 -13 12 0 13 -2 14 -9 3 -6 -9 -11 -10 -15 -2 -4 6 -2 11 4 11
6 0 21 10 34 23 l23 23 -20 123 c-13 78 -25 125 -34 128 -24 10 -43 -18 -44
-66 l-1 -46 -11 45 -11 45 -7 -40 c-5 -31 -6 -22 -7 40 l-1 80 36 28 c44 33
58 34 77 5z m1139 -226 l38 -39 -468 -333 c-257 -184 -490 -349 -516 -368 -26
-19 -51 -32 -54 -28 -4 3 -1 6 5 6 7 0 12 8 12 19 0 30 -21 81 -31 75 -5 -3
-9 -3 -9 -1 0 8 199 155 645 478 265 193 318 229 330 229 6 0 28 -17 48 -38z"/>
<path d="M2912 4203 c-109 -33 -181 -129 -238 -318 -22 -74 -27 -111 -28 -205
-1 -104 1 -120 25 -170 54 -115 133 -168 292 -197 222 -40 385 30 465 198 72
153 68 272 -16 439 -45 91 -153 205 -227 240 -64 31 -195 37 -273 13z"/>
</g>
</svg>
